# xmcd
#
# Track frame offsets:
#	150
#	19742
#	35859
#	52031
#	66256
#	83650
#	100954
#	117070
#	130880
#	145327
#	173475
#	184485
#	200552
#
# Disc length: 2889 seconds
# Revision: 0
# Processed by: cddbd v1.5.2PL0 Copyright (c) Steve Scherf et al.
# Submitted via: dBpowerAMP V12.0
#
DISCID=bc0b470d
DTITLE=Brett Kissel - Started With A Song
DYEAR=2013
DGENRE=Country
TTITLE0=Started With A Song
TTITLE1=Tough People Do
TTITLE2=3-2-1
TTITLE3=Something You Just Don't Forget
TTITLE4=Raise Your Glass
TTITLE5=Country In My Blood
TTITLE6=My Cowgirl
TTITLE7=Girl In A Cowboy Hat
TTITLE8=Canadian Kid
TTITLE9=Together (Grandma And Grandpa's Song)
TTITLE10=She Knows What She Likes  [Bonus Track]
TTITLE11=The Man I Am  [Bonus Track]
TTITLE12=Long Hot Summer  [Bonus Track]
EXTD=
EXTT0=
EXTT1=
EXTT2=
EXTT3=
EXTT4=
EXTT5=
EXTT6=
EXTT7=
EXTT8=
EXTT9=
EXTT10=
EXTT11=
EXTT12=
PLAYORDER=
